# xmcd
#
# Track frame offsets: 
#        150
#        20247
#        34167
#        49052
#        63087
#        74042
#        88702
#        100507
#        116977
#        130685
#        147450
#        162360
#        177122
#        192565
#        205647
#
# Disc length: 2970 seconds
#
# Revision: 2
# Processed by: cddbd v1.5.1PL2 Copyright (c) Steve Scherf et al.
# Submitted via: ExactAudioCopy v0.95b3
#
DISCID=dc0b980f
DTITLE=Cephas and Wiggins - Homemade
DYEAR=1999
DGENRE=Blues
TTITLE0=Mamie
TTITLE1=Meeting the Mule
TTITLE2=Spider Woman
TTITLE3=Trouble in Mind
TTITLE4=Jelly Roll
TTITLE5=Walking Mama
TTITLE6=A Lot of Them Blues
TTITLE7=Illinois Blues
TTITLE8=I was Determined
TTITLE9=Sounds of the Blues
TTITLE10=Worried Life Blues
TTITLE11=Me and My Chauffeur
TTITLE12=Slow Blues
TTITLE13=Leaving Blues
TTITLE14=Pigmeat
EXTD=
EXTT0=
EXTT1=
EXTT2=
EXTT3=
EXTT4=
EXTT5=
EXTT6=
EXTT7=
EXTT8=
EXTT9=
EXTT10=
EXTT11=
EXTT12=
EXTT13=
EXTT14=
PLAYORDER=
